<svg width="226" height="93" xmlns="http://www.w3.org/2000/svg" xmlns:xlink="http://www.w3.org/1999/xlink"><defs><linearGradient x1="50%" y1="0%" x2="50%" y2="100%" id="d"><stop stop-color="#0059B3" offset="0%"/><stop stop-color="#455361" offset="100%"/></linearGradient><rect id="b" width="220" height="87" rx="5"/><filter x="-50%" y="-50%" width="200%" height="200%" filterUnits="objectBoundingBox" id="c"><feOffset dy="1" in="SourceAlpha" result="shadowOffsetOuter1"/><feGaussianBlur stdDeviation="1.5" in="shadowOffsetOuter1" result="shadowBlurOuter1"/><feColorMatrix values="0 0 0 0 0 0 0 0 0 0 0 0 0 0 0 0 0 0 0.35 0" in="shadowBlurOuter1"/></filter><path id="f" d="M0 34.56h176V54H0z"/><path id="h" d="M0 0h220v23.04H0z"/><path id="a" d="M145 38.16h26.125v13.68H145z"/><mask id="i" x="0" y="0" width="26.125" height="13.68" fill="#fff"><use xlink:href="#a"/></mask></defs><g fill="none" fill-rule="evenodd"><g transform="translate(3 2)"><mask id="e" fill="#fff"><use xlink:href="#b"/></mask><use fill="#000" filter="url(#c)" xlink:href="#b"/><use fill="url(#d)" xlink:href="#b"/><path d="M214.44 1.314c2.31-1.513 4.185-.507 4.185 2.26v134.002a4.996 4.996 0 0 1-5.008 4.998H3.633c-2.766 0-3.14-1.223-.822-2.74L214.44 1.314z" fill-opacity=".02" fill="#FFF" mask="url(#e)" transform="rotate(180 109.546 71.286)"/><path d="M24.063 24.812c0-1.105.9-2 2.008-2h11.11c1.11 0 2.007.895 2.007 2v7.406c0 1.104-.9 2-2.008 2H26.07a2.004 2.004 0 0 1-2.007-2v-7.406zm2.75 1.845a.99.99 0 0 1 .993-.994h7.638c.55 0 .993.448.993.994v3.716a.99.99 0 0 1-.993.993h-7.638a.995.995 0 0 1-.993-.993v-3.716z" mask="url(#e)" fill-opacity=".191" fill="#9B89A9"/></g><g transform="translate(3 13)"><mask id="g" fill="#fff"><use xlink:href="#f"/></mask><use fill="#FFF" xlink:href="#f"/><g fill="#404850" opacity=".7" mask="url(#g)"><path d="M-6.59 53.947L46.885.472l.51.51L-6.08 54.455l-.51-.51zm-1.018-1.02L45.867-.546l.51.51L-7.1 53.437l-.51-.51zm-1.018-1.017L44.85-1.565l.508.51L-8.117 52.42l-.51-.51zm-1.02-1.018L43.83-2.583l.51.51L-9.135 51.4l-.51-.51zm-1.017-1.018L42.812-3.6l.51.508-53.476 53.475-.51-.51zm-1.018-1.02L41.793-4.62l.51.51-53.476 53.474-.51-.51zm-1.02-1.017L40.777-5.638l.51.51-53.476 53.474-.51-.51zm-1.017-1.018L39.757-6.657l.51.51-53.475 53.474-.51-.51zm8.145 8.145L47.903 1.49l.51.51-53.475 53.474-.51-.51zm1.02 1.018L48.92 2.508l.51.51-53.476 53.474-.51-.51zM-3.536 57L49.94 3.527l.51.51L-3.027 57.51l-.51-.51zm1.018 1.02L50.958 4.544l.51.51-53.476 53.474-.51-.51zm1.018 1.018L51.977 5.563l.51.51L-.99 59.546l-.51-.51zm1.02 1.018L52.995 6.58l.51.51L.028 60.564l-.51-.51zm1.018 1.018L54.013 7.6l.51.51L1.046 61.582l-.51-.51zm1.018 1.018L55.03 8.617l.51.51L2.065 62.602l-.51-.51zm1.018 1.02L56.05 9.635l.51.51L3.082 63.62l-.51-.51zm2.037 2.035l53.476-53.475.51.51L5.12 65.655l-.51-.51zm1.02 1.018L59.103 12.69l.51.51L6.137 66.674l-.51-.51zm1.017 1.02l53.475-53.476.51.508L7.155 67.693l-.51-.51zM7.665 68.2L61.14 14.727l.51.51L8.175 68.71l-.51-.51zm1.02 1.018l53.474-53.475.508.51L9.193 69.728l-.51-.51zM9.7 70.238l53.475-53.475.51.51L10.21 70.747l-.51-.51zm1.018 1.02L64.195 17.78l.51.51L11.23 71.765l-.51-.51zm1.018 1.017L65.213 18.8l.51.51-53.475 53.474-.51-.51zm1.02 1.018L66.23 19.818l.51.51-53.476 53.474-.51-.51zm1.017 1.018L67.25 20.837l.51.51L14.283 74.82l-.51-.51zm1.018 1.02l53.475-53.476.51.51L15.302 75.84l-.51-.51zm-11.2-11.2l53.474-53.476.51.51L4.102 64.637l-.51-.51z" opacity=".1"/><g opacity=".25" font-size="2.75" font-family="Helvetica"><text transform="rotate(-45 49.657 39.968)"><tspan x="0" y="3">VISA VISA VISA VISA VISA VISA VISA VISA VISA VISA VISA</tspan></text><text transform="rotate(-45 49.657 39.968)"><tspan x="0" y="5.88">VISA VISA VISA VISA VISA VISA VISA VISA VISA VISA VISA</tspan></text><text transform="rotate(-45 49.657 39.968)"><tspan x="0" y="8.76">VISA VISA VISA VISA VISA VISA VISA VISA VISA VISA VISA</tspan></text><text transform="rotate(-45 49.657 39.968)"><tspan x="0" y="11.64">VISA VISA VISA VISA VISA VISA VISA VISA VISA VISA VISA</tspan></text><text transform="rotate(-45 49.657 39.968)"><tspan x="0" y="14.52">VISA VISA VISA VISA VISA VISA VISA VISA VISA VISA VISA</tspan></text><text transform="rotate(-45 49.657 39.968)"><tspan x="0" y="17.4">VISA VISA VISA VISA VISA VISA VISA VISA VISA VISA VISA</tspan></text><text transform="rotate(-45 49.657 39.968)"><tspan x="0" y="20.28">VISA VISA VISA VISA VISA VISA VISA VISA VISA VISA VISA</tspan></text><text transform="rotate(-45 49.657 39.968)"><tspan x="0" y="23.16">VISA VISA VISA VISA VISA VISA VISA VISA VISA VISA VISA</tspan></text><text transform="rotate(-45 49.657 39.968)"><tspan x="0" y="26.04">VISA VISA VISA VISA VISA VISA VISA VISA VISA VISA VISA</tspan></text><text transform="rotate(-45 49.657 39.968)"><tspan x="0" y="28.92">VISA VISA VISA VISA VISA VISA VISA VISA VISA VISA VISA</tspan></text><text transform="rotate(-45 49.657 39.968)"><tspan x="0" y="31.8">VISA VISA VISA VISA VISA VISA VISA VISA VISA VISA VISA</tspan></text><text transform="rotate(-45 49.657 39.968)"><tspan x="0" y="34.68">VISA VISA VISA VISA VISA VISA VISA VISA VISA VISA VISA</tspan></text><text transform="rotate(-45 49.657 39.968)"><tspan x="0" y="37.56">VISA VISA VISA VISA VISA VISA VISA VISA VISA VISA VISA</tspan></text><text transform="rotate(-45 49.657 39.968)"><tspan x="0" y="40.44">VISA VISA VISA VISA VISA VISA VISA VISA VISA VISA VISA</tspan></text></g></g><g fill="#404850" opacity=".7" mask="url(#g)"><path d="M41.91 61.987L95.385 8.512l.51.51L42.42 62.495l-.51-.51zm-1.018-1.02L94.367 7.494l.51.51L41.4 61.477l-.51-.51zm-1.018-1.017L93.35 6.475l.508.51L40.383 60.46l-.51-.51zm-1.02-1.018L92.33 5.457l.51.51L39.365 59.44l-.51-.51zm-1.017-1.018L91.312 4.44l.51.508-53.476 53.475-.51-.51zm-1.018-1.02L90.293 3.42l.51.51-53.476 53.474-.51-.51zm-1.02-1.017L89.277 2.402l.51.51L36.31 56.385l-.51-.51zm7.128 7.128L96.403 9.53l.51.51-53.475 53.474-.51-.51zm1.02 1.018L97.42 10.548l.51.51-53.476 53.474-.51-.51zm1.017 1.018L98.44 11.567l.51.51L45.473 65.55l-.51-.51zm1.018 1.02l53.475-53.475.51.51-53.476 53.474-.51-.51zM47 67.077l53.476-53.475.51.51L47.51 67.586l-.51-.51zm1.02 1.018l53.475-53.475.51.51-53.476 53.475-.51-.51zm1.018 1.018l53.475-53.475.51.51-53.476 53.473-.51-.51zm1.018 1.018l53.475-53.475.51.51-53.475 53.475-.51-.51zm1.018 1.02l53.475-53.476.51.51L51.58 71.66l-.51-.51zm2.037 2.035l53.476-53.475.51.51L53.62 73.695l-.51-.51zm1.02 1.018l53.474-53.475.51.51-53.476 53.474-.51-.51zm1.017 1.02l53.475-53.476.51.508-53.476 53.475-.51-.51zm1.018 1.017l53.475-53.475.51.51L56.675 76.75l-.51-.51zm1.02 1.018l53.474-53.475.508.51L57.693 77.77l-.51-.51zm1.017 1.018l53.475-53.475.51.51L58.71 78.787l-.51-.51zm1.018 1.02l53.475-53.476.51.51L59.73 79.805l-.51-.51zm1.018 1.017l53.475-53.475.51.51-53.475 53.474-.51-.51zm1.02 1.018l53.474-53.475.51.51-53.476 53.474-.51-.51zm1.017 1.018l53.475-53.474.51.51L62.783 82.86l-.51-.51zm1.018 1.02l53.475-53.476.51.51L63.802 83.88l-.51-.51zm-11.2-11.2l53.474-53.476.51.51-53.475 53.474-.51-.51z" opacity=".1"/><g opacity=".25" font-size="2.75" font-family="Helvetica"><text transform="rotate(-45 83.612 -14.557)"><tspan x="0" y="3">VISA VISA VISA VISA VISA VISA VISA VISA VISA VISA VISA</tspan></text><text transform="rotate(-45 83.612 -14.557)"><tspan x="0" y="5.88">VISA VISA VISA VISA VISA VISA VISA VISA VISA VISA VISA</tspan></text><text transform="rotate(-45 83.612 -14.557)"><tspan x="0" y="8.76">VISA VISA VISA VISA VISA VISA VISA VISA VISA VISA VISA</tspan></text><text transform="rotate(-45 83.612 -14.557)"><tspan x="0" y="11.64">VISA VISA VISA VISA VISA VISA VISA VISA VISA VISA VISA</tspan></text><text transform="rotate(-45 83.612 -14.557)"><tspan x="0" y="14.52">VISA VISA VISA VISA VISA VISA VISA VISA VISA VISA VISA</tspan></text><text transform="rotate(-45 83.612 -14.557)"><tspan x="0" y="17.4">VISA VISA VISA VISA VISA VISA VISA VISA VISA VISA VISA</tspan></text><text transform="rotate(-45 83.612 -14.557)"><tspan x="0" y="20.28">VISA VISA VISA VISA VISA VISA VISA VISA VISA VISA VISA</tspan></text><text transform="rotate(-45 83.612 -14.557)"><tspan x="0" y="23.16">VISA VISA VISA VISA VISA VISA VISA VISA VISA VISA VISA</tspan></text><text transform="rotate(-45 83.612 -14.557)"><tspan x="0" y="26.04">VISA VISA VISA VISA VISA VISA VISA VISA VISA VISA VISA</tspan></text><text transform="rotate(-45 83.612 -14.557)"><tspan x="0" y="28.92">VISA VISA VISA VISA VISA VISA VISA VISA VISA VISA VISA</tspan></text><text transform="rotate(-45 83.612 -14.557)"><tspan x="0" y="31.8">VISA VISA VISA VISA VISA VISA VISA VISA VISA VISA VISA</tspan></text><text transform="rotate(-45 83.612 -14.557)"><tspan x="0" y="34.68">VISA VISA VISA VISA VISA VISA VISA VISA VISA VISA VISA</tspan></text><text transform="rotate(-45 83.612 -14.557)"><tspan x="0" y="37.56">VISA VISA VISA VISA VISA VISA VISA VISA VISA VISA VISA</tspan></text><text transform="rotate(-45 83.612 -14.557)"><tspan x="0" y="40.44">VISA VISA VISA VISA VISA VISA VISA VISA VISA VISA VISA</tspan></text></g></g><g fill="#404850" opacity=".7" mask="url(#g)"><path d="M99.223 61.987l53.475-53.475.51.51L99.73 62.495l-.51-.51zm-1.02-1.02L151.68 7.494l.51.51-53.475 53.474-.51-.51zm-1.017-1.017L150.66 6.475l.51.51L97.696 60.46l-.51-.51zm-1.018-1.018l53.475-53.475.51.51L96.676 59.44l-.51-.51zm-1.018-1.018L148.625 4.44l.51.508-53.476 53.475-.51-.51zm-1.018-1.02L147.606 3.42l.51.51L94.64 57.404l-.51-.51zm-1.02-1.017L146.59 2.402l.51.51-53.476 53.474-.51-.51zm7.13 7.128L153.715 9.53l.51.51-53.476 53.474-.51-.51zm1.017 1.018l53.474-53.475.51.51-53.476 53.474-.51-.51zm1.017 1.018l53.475-53.474.51.51-53.476 53.474-.51-.51zm1.02 1.02l53.474-53.475.51.51-53.475 53.474-.51-.51zm1.017 1.018l53.475-53.475.508.51-53.475 53.474-.51-.51zm1.018 1.018l53.475-53.475.51.51-53.476 53.475-.508-.51zm1.018 1.018l53.475-53.475.51.51-53.476 53.473-.51-.51zm1.02 1.018l53.473-53.475.51.51-53.475 53.475-.51-.51zm1.017 1.02l53.475-53.476.51.51-53.476 53.474-.51-.51zm2.036 2.035l53.475-53.475.51.51-53.476 53.474-.51-.51zm1.018 1.018l53.476-53.475.51.51-53.475 53.474-.51-.51zm1.02 1.02l53.475-53.476.51.508-53.476 53.475-.51-.51zm1.018 1.017l53.475-53.475.51.51-53.476 53.474-.51-.51zm1.018 1.018l53.475-53.475.51.51-53.475 53.474-.51-.51zm1.018 1.018l53.475-53.475.51.51-53.476 53.474-.51-.51zm1.02 1.02l53.474-53.476.51.51-53.476 53.474-.51-.51zm1.017 1.017l53.476-53.475.51.51-53.476 53.474-.51-.51zm1.02 1.018l53.474-53.475.51.51-53.476 53.474-.51-.51zm1.017 1.018l53.475-53.474.51.51-53.476 53.474-.51-.51zm1.02 1.02l53.474-53.476.51.51-53.475 53.475-.51-.51zm-11.202-11.2l53.475-53.476.51.51-53.476 53.474-.51-.51z" opacity=".1"/><g opacity=".25" font-size="2.75" font-family="Helvetica"><text transform="rotate(-45 112.268 -83.74)"><tspan x="0" y="3">VISA VISA VISA VISA VISA VISA VISA VISA VISA VISA VISA</tspan></text><text transform="rotate(-45 112.268 -83.74)"><tspan x="0" y="5.88">VISA VISA VISA VISA VISA VISA VISA VISA VISA VISA VISA</tspan></text><text transform="rotate(-45 112.268 -83.74)"><tspan x="0" y="8.76">VISA VISA VISA VISA VISA VISA VISA VISA VISA VISA VISA</tspan></text><text transform="rotate(-45 112.268 -83.74)"><tspan x="0" y="11.64">VISA VISA VISA VISA VISA VISA VISA VISA VISA VISA VISA</tspan></text><text transform="rotate(-45 112.268 -83.74)"><tspan x="0" y="14.52">VISA VISA VISA VISA VISA VISA VISA VISA VISA VISA VISA</tspan></text><text transform="rotate(-45 112.268 -83.74)"><tspan x="0" y="17.4">VISA VISA VISA VISA VISA VISA VISA VISA VISA VISA VISA</tspan></text><text transform="rotate(-45 112.268 -83.74)"><tspan x="0" y="20.28">VISA VISA VISA VISA VISA VISA VISA VISA VISA VISA VISA</tspan></text><text transform="rotate(-45 112.268 -83.74)"><tspan x="0" y="23.16">VISA VISA VISA VISA VISA VISA VISA VISA VISA VISA VISA</tspan></text><text transform="rotate(-45 112.268 -83.74)"><tspan x="0" y="26.04">VISA VISA VISA VISA VISA VISA VISA VISA VISA VISA VISA</tspan></text><text transform="rotate(-45 112.268 -83.74)"><tspan x="0" y="28.92">VISA VISA VISA VISA VISA VISA VISA VISA VISA VISA VISA</tspan></text><text transform="rotate(-45 112.268 -83.74)"><tspan x="0" y="31.8">VISA VISA VISA VISA VISA VISA VISA VISA VISA VISA VISA</tspan></text><text transform="rotate(-45 112.268 -83.74)"><tspan x="0" y="34.68">VISA VISA VISA VISA VISA VISA VISA VISA VISA VISA VISA</tspan></text><text transform="rotate(-45 112.268 -83.74)"><tspan x="0" y="37.56">VISA VISA VISA VISA VISA VISA VISA VISA VISA VISA VISA</tspan></text><text transform="rotate(-45 112.268 -83.74)"><tspan x="0" y="40.44">VISA VISA VISA VISA VISA VISA VISA VISA VISA VISA VISA</tspan></text></g></g><g fill="#404850" opacity=".7" mask="url(#g)"><path d="M155.535 61.987L209.01 8.512l.51.51-53.476 53.474-.51-.51zm-1.018-1.02l53.475-53.474.51.51-53.476 53.474-.51-.51zM153.5 59.95l53.474-53.475.51.51-53.476 53.474-.51-.51zm-1.02-1.018l53.475-53.475.51.51L152.99 59.44l-.51-.51zm-1.018-1.018L204.937 4.44l.51.508-53.476 53.475-.508-.51zm-1.018-1.02L203.92 3.42l.51.51-53.477 53.474-.51-.51zm-1.018-1.017L202.9 2.402l.51.51-53.476 53.474-.51-.51zm7.127 7.128L210.028 9.53l.51.51-53.475 53.474-.51-.51zm1.02 1.018l53.474-53.475.51.51-53.476 53.474-.51-.51zm1.017 1.018l53.475-53.474.51.51-53.476 53.474-.51-.51zm1.018 1.02l53.475-53.475.51.51-53.476 53.474-.51-.51zm1.018 1.018L214.1 13.603l.51.51-53.475 53.474-.51-.51zm1.02 1.018L215.12 14.62l.51.51-53.476 53.474-.51-.51zm1.017 1.018l53.475-53.475.51.51-53.476 53.473-.51-.51zm1.018 1.018l53.476-53.475.51.51-53.476 53.475-.51-.51zm1.02 1.02l53.474-53.476.51.51-53.476 53.474-.51-.51zm2.036 2.035l53.475-53.475.51.51-53.475 53.474-.51-.51zm1.018 1.018L221.23 20.73l.51.51-53.477 53.474-.51-.51zm1.018 1.02l53.475-53.476.51.508-53.476 53.475-.508-.51zm1.018 1.017l53.475-53.475.51.51L170.3 76.75l-.51-.51zm1.02 1.018l53.474-53.475.51.51-53.476 53.474-.51-.51zm1.017 1.018l53.475-53.475.51.51-53.476 53.474-.51-.51zm1.018 1.02L226.32 25.82l.51.51-53.476 53.474-.51-.51zm1.018 1.017l53.475-53.475.51.51-53.475 53.474-.51-.51zm1.02 1.018l53.474-53.475.51.51-53.476 53.474-.51-.51zm1.017 1.018l53.475-53.474.51.51-53.476 53.474-.51-.51zm1.018 1.02l53.475-53.476.51.51-53.476 53.475-.51-.51zm-11.2-11.2l53.474-53.476.51.51-53.475 53.474-.51-.51z" opacity=".1"/><g opacity=".25" font-size="2.75" font-family="Helvetica"><text transform="rotate(-45 140.424 -151.714)"><tspan x="0" y="3">VISA VISA VISA VISA VISA VISA VISA VISA VISA VISA VISA</tspan></text><text transform="rotate(-45 140.424 -151.714)"><tspan x="0" y="5.88">VISA VISA VISA VISA VISA VISA VISA VISA VISA VISA VISA</tspan></text><text transform="rotate(-45 140.424 -151.714)"><tspan x="0" y="8.76">VISA VISA VISA VISA VISA VISA VISA VISA VISA VISA VISA</tspan></text><text transform="rotate(-45 140.424 -151.714)"><tspan x="0" y="11.64">VISA VISA VISA VISA VISA VISA VISA VISA VISA VISA VISA</tspan></text><text transform="rotate(-45 140.424 -151.714)"><tspan x="0" y="14.52">VISA VISA VISA VISA VISA VISA VISA VISA VISA VISA VISA</tspan></text><text transform="rotate(-45 140.424 -151.714)"><tspan x="0" y="17.4">VISA VISA VISA VISA VISA VISA VISA VISA VISA VISA VISA</tspan></text><text transform="rotate(-45 140.424 -151.714)"><tspan x="0" y="20.28">VISA VISA VISA VISA VISA VISA VISA VISA VISA VISA VISA</tspan></text><text transform="rotate(-45 140.424 -151.714)"><tspan x="0" y="23.16">VISA VISA VISA VISA VISA VISA VISA VISA VISA VISA VISA</tspan></text><text transform="rotate(-45 140.424 -151.714)"><tspan x="0" y="26.04">VISA VISA VISA VISA VISA VISA VISA VISA VISA VISA VISA</tspan></text><text transform="rotate(-45 140.424 -151.714)"><tspan x="0" y="28.92">VISA VISA VISA VISA VISA VISA VISA VISA VISA VISA VISA</tspan></text><text transform="rotate(-45 140.424 -151.714)"><tspan x="0" y="31.8">VISA VISA VISA VISA VISA VISA VISA VISA VISA VISA VISA</tspan></text><text transform="rotate(-45 140.424 -151.714)"><tspan x="0" y="34.68">VISA VISA VISA VISA VISA VISA VISA VISA VISA VISA VISA</tspan></text><text transform="rotate(-45 140.424 -151.714)"><tspan x="0" y="37.56">VISA VISA VISA VISA VISA VISA VISA VISA VISA VISA VISA</tspan></text><text transform="rotate(-45 140.424 -151.714)"><tspan x="0" y="40.44">VISA VISA VISA VISA VISA VISA VISA VISA VISA VISA VISA</tspan></text></g></g><use fill="#000" xlink:href="#h"/><text font-family=".LucidaGrandeUI, .Lucida Grande UI" font-size="11" fill="#000"><tspan x="112.063" y="49.16">1234</tspan></text><text font-family=".LucidaGrandeUI, .Lucida Grande UI" font-size="11" fill="#000"><tspan x="147.75" y="49.16">567</tspan></text><use stroke="#FF4343" mask="url(#i)" stroke-width="2" xlink:href="#a"/></g></g></svg>